<mxfile host="app.diagrams.net" modified="2021-04-13T10:40:06.395Z" agent="5.0 (Windows)" etag="PsKv-i93mqlnWJoT-_L3" version="14.6.0" type="github">
  <diagram id="cq_N_JHk0V6czlqZl5l5" name="Página-1">
    <mxGraphModel dx="1422" dy="740" grid="1" gridSize="10" guides="1" tooltips="1" connect="1" arrows="1" fold="1" page="1" pageScale="1" pageWidth="827" pageHeight="1169" math="0" shadow="0">
      <root>
        <mxCell id="0" />
        <mxCell id="1" parent="0" />
        <mxCell id="DTXv0WOeQ2A3S2TirWm5-17" value="" style="rounded=1;whiteSpace=wrap;html=1;fillColor=none;" parent="1" vertex="1">
          <mxGeometry x="150" y="510" width="470" height="350" as="geometry" />
        </mxCell>
        <mxCell id="DTXv0WOeQ2A3S2TirWm5-1" value="Ip Destino - 4 bytes" style="rounded=0;whiteSpace=wrap;html=1;" parent="1" vertex="1">
          <mxGeometry x="225" y="180" width="320" height="50" as="geometry" />
        </mxCell>
        <mxCell id="DTXv0WOeQ2A3S2TirWm5-2" value="ID - 4 bytes" style="rounded=0;whiteSpace=wrap;html=1;" parent="1" vertex="1">
          <mxGeometry x="225" y="80" width="320" height="50" as="geometry" />
        </mxCell>
        <mxCell id="DTXv0WOeQ2A3S2TirWm5-3" value="Offset - 4 bytes" style="rounded=0;whiteSpace=wrap;html=1;" parent="1" vertex="1">
          <mxGeometry x="225" y="330" width="320" height="50" as="geometry" />
        </mxCell>
        <mxCell id="DTXv0WOeQ2A3S2TirWm5-4" value="Tipo - 4 bytes" style="rounded=0;whiteSpace=wrap;html=1;" parent="1" vertex="1">
          <mxGeometry x="225" y="280" width="320" height="50" as="geometry" />
        </mxCell>
        <mxCell id="DTXv0WOeQ2A3S2TirWm5-5" value="Data/Payload - até 4096 bytes" style="rounded=0;whiteSpace=wrap;html=1;" parent="1" vertex="1">
          <mxGeometry x="225" y="380" width="320" height="50" as="geometry" />
        </mxCell>
        <mxCell id="DTXv0WOeQ2A3S2TirWm5-6" value="Identificador da Transferência - 4 bytes" style="rounded=0;whiteSpace=wrap;html=1;" parent="1" vertex="1">
          <mxGeometry x="225" y="130" width="320" height="50" as="geometry" />
        </mxCell>
        <mxCell id="DTXv0WOeQ2A3S2TirWm5-7" value="Connection Request/Keep Alive" style="rounded=0;whiteSpace=wrap;html=1;" parent="1" vertex="1">
          <mxGeometry x="200" y="570" width="320" height="50" as="geometry" />
        </mxCell>
        <mxCell id="DTXv0WOeQ2A3S2TirWm5-8" value="Ack" style="rounded=0;whiteSpace=wrap;html=1;" parent="1" vertex="1">
          <mxGeometry x="200" y="520" width="320" height="50" as="geometry" />
        </mxCell>
        <mxCell id="DTXv0WOeQ2A3S2TirWm5-9" value="End Connection" style="rounded=0;whiteSpace=wrap;html=1;" parent="1" vertex="1">
          <mxGeometry x="200" y="620" width="320" height="50" as="geometry" />
        </mxCell>
        <mxCell id="DTXv0WOeQ2A3S2TirWm5-10" value="DataPacket" style="rounded=0;whiteSpace=wrap;html=1;" parent="1" vertex="1">
          <mxGeometry x="200" y="670" width="320" height="50" as="geometry" />
        </mxCell>
        <mxCell id="DTXv0WOeQ2A3S2TirWm5-11" value="1" style="rounded=0;whiteSpace=wrap;html=1;" parent="1" vertex="1">
          <mxGeometry x="520" y="520" width="50" height="50" as="geometry" />
        </mxCell>
        <mxCell id="DTXv0WOeQ2A3S2TirWm5-12" value="2" style="rounded=0;whiteSpace=wrap;html=1;" parent="1" vertex="1">
          <mxGeometry x="520" y="570" width="50" height="50" as="geometry" />
        </mxCell>
        <mxCell id="DTXv0WOeQ2A3S2TirWm5-13" value="3" style="rounded=0;whiteSpace=wrap;html=1;" parent="1" vertex="1">
          <mxGeometry x="520" y="620" width="50" height="50" as="geometry" />
        </mxCell>
        <mxCell id="DTXv0WOeQ2A3S2TirWm5-14" value="4" style="rounded=0;whiteSpace=wrap;html=1;" parent="1" vertex="1">
          <mxGeometry x="520" y="670" width="50" height="50" as="geometry" />
        </mxCell>
        <mxCell id="DTXv0WOeQ2A3S2TirWm5-16" value="" style="endArrow=none;html=1;entryX=0;entryY=0.5;entryDx=0;entryDy=0;exitX=0.5;exitY=0;exitDx=0;exitDy=0;" parent="1" source="DTXv0WOeQ2A3S2TirWm5-17" target="DTXv0WOeQ2A3S2TirWm5-4" edge="1">
          <mxGeometry width="50" height="50" relative="1" as="geometry">
            <mxPoint x="360" y="480" as="sourcePoint" />
            <mxPoint x="80" y="390" as="targetPoint" />
            <Array as="points">
              <mxPoint x="385" y="480" />
              <mxPoint x="110" y="480" />
              <mxPoint x="110" y="305" />
            </Array>
          </mxGeometry>
        </mxCell>
        <mxCell id="DTXv0WOeQ2A3S2TirWm5-19" value="Porta - 4 bytes" style="rounded=0;whiteSpace=wrap;html=1;" parent="1" vertex="1">
          <mxGeometry x="225" y="230" width="320" height="50" as="geometry" />
        </mxCell>
        <mxCell id="DTXv0WOeQ2A3S2TirWm5-20" value="Get Request" style="rounded=0;whiteSpace=wrap;html=1;" parent="1" vertex="1">
          <mxGeometry x="200" y="720" width="320" height="50" as="geometry" />
        </mxCell>
        <mxCell id="DTXv0WOeQ2A3S2TirWm5-22" value="5" style="rounded=0;whiteSpace=wrap;html=1;" parent="1" vertex="1">
          <mxGeometry x="520" y="720" width="50" height="50" as="geometry" />
        </mxCell>
        <mxCell id="DTXv0WOeQ2A3S2TirWm5-23" value="" style="endArrow=none;html=1;" parent="1" edge="1">
          <mxGeometry width="50" height="50" relative="1" as="geometry">
            <mxPoint x="545" y="160" as="sourcePoint" />
            <mxPoint x="680" y="280" as="targetPoint" />
          </mxGeometry>
        </mxCell>
        <mxCell id="DTXv0WOeQ2A3S2TirWm5-24" value="" style="endArrow=none;html=1;" parent="1" edge="1">
          <mxGeometry width="50" height="50" relative="1" as="geometry">
            <mxPoint x="545" y="200" as="sourcePoint" />
            <mxPoint x="680" y="280" as="targetPoint" />
          </mxGeometry>
        </mxCell>
        <mxCell id="DTXv0WOeQ2A3S2TirWm5-25" value="" style="endArrow=none;html=1;" parent="1" edge="1">
          <mxGeometry width="50" height="50" relative="1" as="geometry">
            <mxPoint x="545" y="250" as="sourcePoint" />
            <mxPoint x="680" y="280" as="targetPoint" />
            <Array as="points">
              <mxPoint x="680" y="280" />
            </Array>
          </mxGeometry>
        </mxCell>
        <mxCell id="DTXv0WOeQ2A3S2TirWm5-31" value="[Thread]&lt;br&gt;UdpPGW&lt;br&gt;Udp - listener" style="whiteSpace=wrap;html=1;aspect=fixed;fillColor=#ffffff;" parent="1" vertex="1">
          <mxGeometry x="240" y="1530" width="110" height="110" as="geometry" />
        </mxCell>
        <mxCell id="DTXv0WOeQ2A3S2TirWm5-32" value="[Thread]&lt;br&gt;SrvManager" style="whiteSpace=wrap;html=1;aspect=fixed;fillColor=#ffffff;" parent="1" vertex="1">
          <mxGeometry x="540" y="1235" width="90" height="90" as="geometry" />
        </mxCell>
        <mxCell id="DTXv0WOeQ2A3S2TirWm5-44" value="servidor Novo" style="whiteSpace=wrap;html=1;aspect=fixed;fillColor=#ffffff;" parent="1" vertex="1">
          <mxGeometry x="740" y="1545" width="80" height="80" as="geometry" />
        </mxCell>
        <mxCell id="PgMdf3JUyPcmJIXbT_ub-1" value="[Thread] manter Sv ativo" style="shape=process;whiteSpace=wrap;html=1;backgroundOutline=1;" parent="1" vertex="1">
          <mxGeometry x="720" y="1442.5" width="80" height="55" as="geometry" />
        </mxCell>
        <mxCell id="PgMdf3JUyPcmJIXbT_ub-3" value="HttpGw" style="whiteSpace=wrap;html=1;aspect=fixed;" parent="1" vertex="1">
          <mxGeometry x="50" y="1530" width="110" height="110" as="geometry" />
        </mxCell>
        <mxCell id="PgMdf3JUyPcmJIXbT_ub-4" value="[Thread]&lt;br&gt;Client Handler" style="whiteSpace=wrap;html=1;aspect=fixed;" parent="1" vertex="1">
          <mxGeometry x="414" y="1540" width="85" height="85" as="geometry" />
        </mxCell>
        <mxCell id="PgMdf3JUyPcmJIXbT_ub-8" value="ServersInfo" style="shape=card;whiteSpace=wrap;html=1;" parent="1" vertex="1">
          <mxGeometry x="480" y="1380" width="65" height="80" as="geometry" />
        </mxCell>
        <mxCell id="PgMdf3JUyPcmJIXbT_ub-9" value="" style="endArrow=none;html=1;entryX=0.5;entryY=1;entryDx=0;entryDy=0;entryPerimeter=0;exitX=0.5;exitY=0;exitDx=0;exitDy=0;" parent="1" source="PgMdf3JUyPcmJIXbT_ub-4" target="PgMdf3JUyPcmJIXbT_ub-8" edge="1">
          <mxGeometry width="50" height="50" relative="1" as="geometry">
            <mxPoint x="487.5" y="1530" as="sourcePoint" />
            <mxPoint x="537.5" y="1480" as="targetPoint" />
            <Array as="points">
              <mxPoint x="457" y="1510" />
              <mxPoint x="513" y="1510" />
            </Array>
          </mxGeometry>
        </mxCell>
        <mxCell id="PgMdf3JUyPcmJIXbT_ub-10" value="" style="endArrow=none;html=1;entryX=0.5;entryY=1;entryDx=0;entryDy=0;exitX=1;exitY=0.5;exitDx=0;exitDy=0;exitPerimeter=0;" parent="1" source="PgMdf3JUyPcmJIXbT_ub-8" target="DTXv0WOeQ2A3S2TirWm5-32" edge="1">
          <mxGeometry width="50" height="50" relative="1" as="geometry">
            <mxPoint x="550" y="1420" as="sourcePoint" />
            <mxPoint x="620" y="1350" as="targetPoint" />
            <Array as="points">
              <mxPoint x="585" y="1420" />
            </Array>
          </mxGeometry>
        </mxCell>
        <mxCell id="PgMdf3JUyPcmJIXbT_ub-15" value="" style="shape=flexArrow;endArrow=classic;html=1;entryX=0;entryY=0.5;entryDx=0;entryDy=0;exitX=1;exitY=0.5;exitDx=0;exitDy=0;" parent="1" source="PgMdf3JUyPcmJIXbT_ub-3" target="DTXv0WOeQ2A3S2TirWm5-31" edge="1">
          <mxGeometry width="50" height="50" relative="1" as="geometry">
            <mxPoint x="160" y="1600" as="sourcePoint" />
            <mxPoint x="210" y="1550" as="targetPoint" />
          </mxGeometry>
        </mxCell>
        <mxCell id="PgMdf3JUyPcmJIXbT_ub-16" value="" style="shape=flexArrow;endArrow=classic;html=1;entryX=0.5;entryY=1;entryDx=0;entryDy=0;exitX=0.618;exitY=1;exitDx=0;exitDy=0;exitPerimeter=0;" parent="1" source="PgMdf3JUyPcmJIXbT_ub-3" target="PgMdf3JUyPcmJIXbT_ub-4" edge="1">
          <mxGeometry width="50" height="50" relative="1" as="geometry">
            <mxPoint x="120" y="1660" as="sourcePoint" />
            <mxPoint x="160" y="1660" as="targetPoint" />
            <Array as="points">
              <mxPoint x="118" y="1660" />
              <mxPoint x="457" y="1660" />
            </Array>
          </mxGeometry>
        </mxCell>
        <mxCell id="PgMdf3JUyPcmJIXbT_ub-32" value="Request-&amp;gt;" style="edgeLabel;html=1;align=center;verticalAlign=middle;resizable=0;points=[];" parent="PgMdf3JUyPcmJIXbT_ub-16" vertex="1" connectable="0">
          <mxGeometry x="0.4112" relative="1" as="geometry">
            <mxPoint as="offset" />
          </mxGeometry>
        </mxCell>
        <mxCell id="PgMdf3JUyPcmJIXbT_ub-17" value="" style="shape=flexArrow;endArrow=classic;html=1;exitX=0.5;exitY=0;exitDx=0;exitDy=0;entryX=0.5;entryY=0;entryDx=0;entryDy=0;" parent="1" source="PgMdf3JUyPcmJIXbT_ub-3" target="DTXv0WOeQ2A3S2TirWm5-32" edge="1">
          <mxGeometry width="50" height="50" relative="1" as="geometry">
            <mxPoint x="50" y="1385" as="sourcePoint" />
            <mxPoint x="450" y="1250" as="targetPoint" />
            <Array as="points">
              <mxPoint x="105" y="1390" />
              <mxPoint x="310" y="1390" />
              <mxPoint x="310" y="1200" />
              <mxPoint x="585" y="1200" />
            </Array>
          </mxGeometry>
        </mxCell>
        <mxCell id="PgMdf3JUyPcmJIXbT_ub-18" value="" style="shape=flexArrow;endArrow=classic;html=1;exitX=0.5;exitY=0;exitDx=0;exitDy=0;entryX=0.5;entryY=1;entryDx=0;entryDy=0;" parent="1" source="DTXv0WOeQ2A3S2TirWm5-44" target="PgMdf3JUyPcmJIXbT_ub-1" edge="1">
          <mxGeometry width="50" height="50" relative="1" as="geometry">
            <mxPoint x="750" y="1545" as="sourcePoint" />
            <mxPoint x="800" y="1495" as="targetPoint" />
          </mxGeometry>
        </mxCell>
        <mxCell id="PgMdf3JUyPcmJIXbT_ub-22" value="[Thread]&lt;br&gt;HttpGw" style="whiteSpace=wrap;html=1;aspect=fixed;" parent="1" vertex="1">
          <mxGeometry x="50" y="1870" width="110" height="110" as="geometry" />
        </mxCell>
        <mxCell id="PgMdf3JUyPcmJIXbT_ub-23" value="" style="shape=flexArrow;endArrow=classic;html=1;entryX=0.5;entryY=0;entryDx=0;entryDy=0;exitX=0.25;exitY=1;exitDx=0;exitDy=0;" parent="1" source="PgMdf3JUyPcmJIXbT_ub-3" target="PgMdf3JUyPcmJIXbT_ub-22" edge="1">
          <mxGeometry width="50" height="50" relative="1" as="geometry">
            <mxPoint x="30" y="1660" as="sourcePoint" />
            <mxPoint x="80" y="1610" as="targetPoint" />
          </mxGeometry>
        </mxCell>
        <mxCell id="PgMdf3JUyPcmJIXbT_ub-24" value="Responsável por devolver a resposta ao cliente" style="shape=note;whiteSpace=wrap;html=1;backgroundOutline=1;darkOpacity=0.05;" parent="1" vertex="1">
          <mxGeometry x="160" y="1870" width="110" height="110" as="geometry" />
        </mxCell>
        <mxCell id="PgMdf3JUyPcmJIXbT_ub-25" value="PacketStack" style="shape=card;whiteSpace=wrap;html=1;" parent="1" vertex="1">
          <mxGeometry x="180" y="1700" width="60" height="75" as="geometry" />
        </mxCell>
        <mxCell id="PgMdf3JUyPcmJIXbT_ub-26" value="" style="endArrow=none;html=1;entryX=0.5;entryY=1;entryDx=0;entryDy=0;exitX=-0.033;exitY=0.547;exitDx=0;exitDy=0;exitPerimeter=0;" parent="1" source="PgMdf3JUyPcmJIXbT_ub-25" target="PgMdf3JUyPcmJIXbT_ub-3" edge="1">
          <mxGeometry width="50" height="50" relative="1" as="geometry">
            <mxPoint x="130" y="1690" as="sourcePoint" />
            <mxPoint x="180" y="1640" as="targetPoint" />
            <Array as="points">
              <mxPoint x="105" y="1691" />
            </Array>
          </mxGeometry>
        </mxCell>
        <mxCell id="PgMdf3JUyPcmJIXbT_ub-27" value="" style="endArrow=none;html=1;exitX=1;exitY=0.5;exitDx=0;exitDy=0;exitPerimeter=0;entryX=0.182;entryY=1;entryDx=0;entryDy=0;entryPerimeter=0;" parent="1" source="PgMdf3JUyPcmJIXbT_ub-25" target="DTXv0WOeQ2A3S2TirWm5-31" edge="1">
          <mxGeometry width="50" height="50" relative="1" as="geometry">
            <mxPoint x="240" y="1712.5" as="sourcePoint" />
            <mxPoint x="290" y="1662.5" as="targetPoint" />
            <Array as="points">
              <mxPoint x="260" y="1688" />
            </Array>
          </mxGeometry>
        </mxCell>
        <mxCell id="PgMdf3JUyPcmJIXbT_ub-28" value="" style="endArrow=none;html=1;entryX=0.5;entryY=1;entryDx=0;entryDy=0;entryPerimeter=0;exitX=0.75;exitY=0;exitDx=0;exitDy=0;" parent="1" source="PgMdf3JUyPcmJIXbT_ub-22" target="PgMdf3JUyPcmJIXbT_ub-25" edge="1">
          <mxGeometry width="50" height="50" relative="1" as="geometry">
            <mxPoint x="140" y="1770" as="sourcePoint" />
            <mxPoint x="230" y="1740" as="targetPoint" />
            <Array as="points">
              <mxPoint x="133" y="1820" />
              <mxPoint x="210" y="1820" />
            </Array>
          </mxGeometry>
        </mxCell>
        <mxCell id="PgMdf3JUyPcmJIXbT_ub-30" value="" style="endArrow=classic;html=1;exitX=1;exitY=0.25;exitDx=0;exitDy=0;" parent="1" source="PgMdf3JUyPcmJIXbT_ub-4" edge="1">
          <mxGeometry width="50" height="50" relative="1" as="geometry">
            <mxPoint x="500" y="1570" as="sourcePoint" />
            <mxPoint x="740" y="1560" as="targetPoint" />
          </mxGeometry>
        </mxCell>
        <mxCell id="PgMdf3JUyPcmJIXbT_ub-31" value="" style="endArrow=classic;html=1;exitX=0;exitY=0.5;exitDx=0;exitDy=0;entryX=0.5;entryY=1;entryDx=0;entryDy=0;" parent="1" source="DTXv0WOeQ2A3S2TirWm5-44" target="DTXv0WOeQ2A3S2TirWm5-31" edge="1">
          <mxGeometry width="50" height="50" relative="1" as="geometry">
            <mxPoint x="640" y="1660" as="sourcePoint" />
            <mxPoint x="330" y="1880" as="targetPoint" />
            <Array as="points">
              <mxPoint x="720" y="1585" />
              <mxPoint x="720" y="1880" />
              <mxPoint x="295" y="1880" />
            </Array>
          </mxGeometry>
        </mxCell>
        <mxCell id="w1H5sVBZnmZM2cJIrnk3-1" value="ServerStack" style="whiteSpace=wrap;html=1;aspect=fixed;" vertex="1" parent="1">
          <mxGeometry x="345" y="1340" width="80" height="80" as="geometry" />
        </mxCell>
        <mxCell id="w1H5sVBZnmZM2cJIrnk3-3" value="" style="endArrow=none;html=1;entryX=0.5;entryY=1;entryDx=0;entryDy=0;exitX=0.5;exitY=0;exitDx=0;exitDy=0;" edge="1" parent="1" source="DTXv0WOeQ2A3S2TirWm5-31" target="w1H5sVBZnmZM2cJIrnk3-1">
          <mxGeometry width="50" height="50" relative="1" as="geometry">
            <mxPoint x="390" y="1540" as="sourcePoint" />
            <mxPoint x="440" y="1490" as="targetPoint" />
            <Array as="points">
              <mxPoint x="295" y="1470" />
              <mxPoint x="385" y="1470" />
            </Array>
          </mxGeometry>
        </mxCell>
        <mxCell id="w1H5sVBZnmZM2cJIrnk3-4" value="" style="endArrow=none;html=1;entryX=0;entryY=0.5;entryDx=0;entryDy=0;exitX=0.5;exitY=0;exitDx=0;exitDy=0;" edge="1" parent="1" source="w1H5sVBZnmZM2cJIrnk3-1" target="DTXv0WOeQ2A3S2TirWm5-32">
          <mxGeometry width="50" height="50" relative="1" as="geometry">
            <mxPoint x="390" y="1540" as="sourcePoint" />
            <mxPoint x="440" y="1490" as="targetPoint" />
            <Array as="points">
              <mxPoint x="385" y="1280" />
            </Array>
          </mxGeometry>
        </mxCell>
        <mxCell id="w1H5sVBZnmZM2cJIrnk3-5" value="" style="endArrow=none;html=1;entryX=0;entryY=0.5;entryDx=0;entryDy=0;exitX=0.75;exitY=1;exitDx=0;exitDy=0;" edge="1" parent="1" source="DTXv0WOeQ2A3S2TirWm5-31" target="PgMdf3JUyPcmJIXbT_ub-1">
          <mxGeometry width="50" height="50" relative="1" as="geometry">
            <mxPoint x="390" y="1570" as="sourcePoint" />
            <mxPoint x="440" y="1520" as="targetPoint" />
            <Array as="points">
              <mxPoint x="323" y="1800" />
              <mxPoint x="600" y="1800" />
              <mxPoint x="600" y="1470" />
            </Array>
          </mxGeometry>
        </mxCell>
      </root>
    </mxGraphModel>
  </diagram>
</mxfile>
